<?xml version="1.0" encoding="UTF-8"?>
<svg xmlns="http://www.w3.org/2000/svg" viewBox="63 0 87 100">
  <defs>
    <style>
      .cls-1 { fill: #50beaf; }
    </style>
  </defs>
  <g>
    <path class="cls-1" d="M118.5,80.34h-3.3l12.38,17.84c.11.15.28.25.47.25h7.34c.32,0,.48-.38.25-.61l-17.15-17.48Z"/>
    <path class="cls-1" d="M112.42,80.48c-.05-.09-.14-.14-.24-.14h-2.94c-.1,0-.16.1-.13.19l1.85,5.2h4.24l-2.78-5.25Z"/>
    <path class="cls-1" d="M117.01,89.14h-4.83l3.21,9c.07.17.23.28.41.28h5.76c.17,0,.28-.19.2-.34l-4.74-8.94Z"/>
    <path class="cls-1" d="M92.85,80.34l-17.15,17.48c-.22.23-.06.61.25.61h7.34c.19,0,.36-.09.47-.25l12.38-17.84h-3.3Z"/>
    <path class="cls-1" d="M89.57,98.08c-.09.15.03.34.21.34h5.76c.18,0,.34-.11.4-.28l3.35-9h-4.83l-4.88,8.94Z"/>
    <path class="cls-1" d="M102.35,80.34h-2.94c-.1,0-.19.05-.23.14l-2.86,5.25h4.24l1.93-5.2c.03-.09-.03-.19-.13-.19Z"/>
    <path class="cls-1" d="M104.77,80.34l-1.96,17.73c-.02.19.13.36.32.36h5.63c.19,0,.34-.17.32-.36l-1.81-17.73h-2.49Z"/>
    <path class="cls-1" d="M158.84,48.8l-7.06-7.06-4.55,4.55,2.67,2.67,1.88-1.88,1.71,1.71-4.69,4.69-2.71-2.71V14.67c0-.98-.79-1.78-1.78-1.78h-33.01l-2.85-2.85,4.69-4.69,1.71,1.71-1.88,1.88,2.67,2.67,4.55-4.55-7.06-7.06-7.37,7.37-7.37-7.37-7.06,7.06,4.55,4.55,2.67-2.67-1.88-1.88,1.71-1.71,4.69,4.69-2.85,2.85h-32.98c-.98,0-1.79.8-1.79,1.78v35.97l-2.97,2.97-4.69-4.69,1.71-1.71,1.88,1.88,2.67-2.67-4.55-4.55-7.06,7.06,7.37,7.37-7.37,7.37,7.06,7.06,4.55-4.55-2.67-2.67-1.88,1.88-1.71-1.71,4.69-4.69,2.97,2.97v10.01h0v5.8-.02s0,20.22,0,20.22c0,.43.5.65.83.4l22.77-17.89c.43-.35.69-.88.69-1.44v-9.05l9.75-10.16,9.77,9.77,2.67-2.67-4.91-4.91,7.1-7.1,7.64,7.64v16.48c0,.56.26,1.09.68,1.44l22.56,17.85c.43.35,1.07.04,1.07-.51l-.02-19.38v-16.84l2.71-2.71,4.69,4.69-1.71,1.71-1.88-1.88-2.67,2.67,4.55,4.55,7.06-7.06-7.37-7.37,7.37-7.37ZM105.78,12.71l.18.18h-.35l.18-.18ZM65.2,56.28l.29-.29v.59l-.29-.29ZM114.16,49.52l-9.77,9.77-4.92-4.92-9.7,10.1v-6.74l-.02-.02v-8.84s.02,0,.02-.03v-11.64c0-.43.35-.77.77-.77h30.49c.42,0,.77.35.77.77v11.64h0v8.31l-7.64-7.64ZM134.96,56.83l-3.03,3.03c-.13.12-.31.38-.31.99v8.79l-3.46-2.2v5.83l3.47,2.22v6.69s-5.25-4.06-5.25-4.06c-.21-.19-.33-.45-.33-.74v-43.42c0-.98-.8-1.78-1.78-1.78h-6.27.56s-5.79,0-5.79,0h-.56s-13.66,0-13.66,0h0s-5.79,0-5.79,0h0s-5.44,0-5.44,0c-.98,0-1.78.79-1.78,1.78v6.02h0v5.78h0v15.12h0v5.78h0v11.27c0,.29-.14.59-.39.77l-5.2,3.68.02-6.78,3.45-2.18v-5.82l-3.45,2.18v-3.07s0-6.43,0-6.43c-.09-.18-.21-.35-.35-.49l-3.03-3.03c-.43-.43-.43-1.11,0-1.53l3.07-3.08c.14-.12.24-.27.31-.44v-7.05s3.43,2.2,3.43,2.2v-5.94l-3.42-2.14v-5.06s0-6.18,0-6.18c0-.42.35-.77.78-.76h10.13l2.74,4.34h5.93l-2.8-4.34h3.63c.41,0,.82,0,1.21-.29l3.46-2.85c.21-.21.48-.31.76-.31s.56.1.78.31l3.42,2.65c.26.17.56.4.9.43l3.65.06-2.82,4.34h5.96l2.83-4.42,10.25.09c.42,0,.77.34.77.76v11.2l-3.43,2.17v5.93l3.44-2.09v7.09c.08.14.16.26.27.38l3.09,3.07c.37.37.4.91.13,1.33l-3.19,3.19.03.03h0c-.28.3-.48.69-.48,1.08ZM141.85,61.1v15.36l-4.05-2.56v5.9l4.05,2.6v7.73l-5.62-4.65-.03-7.05.03-5.6v-7.14l-.03-3.03v-5.2s.03-3.12.03-3.12v-7.41s0-6.84,0-6.84v-5.76s0-.03,0-.03v-5.25s.02-4.76.02-4.76c0-.88-.56-1.59-1.4-1.73-.09-.03-.2-.03-.3-.03h-57.51c-.98-.02-1.8.78-1.8,1.78v4.76s.02,4.64.02,4.64v6.96s.02,4.17.02,4.17v9.45s0,3.1,0,3.1l.02,9.15v3.81s.02,5.78.02,5.78v2.29l.02,7.63-5.63,4.07v-7.93l3.87-2.46v-5.9l-3.87,2.43v-15.37c0-.41-.2-.79-.49-1.08l-3.03-3.03c-.43-.43-.43-1.11,0-1.53l3.08-3.07c.25-.25.39-.56.43-.9v-13.21l3.8,2.44v-5.86l-3.8-2.42v-14.34c0-.43.34-.77.77-.77h14.25l2.72,4.33h5.91l-2.85-4.33h10.45c.41,0,.78-.19,1.08-.48l3.03-3.03c.43-.42,1.1-.42,1.53,0l3.07,3.09c.25.24.56.39.9.43h10.17l-2.6,4.33h5.78l2.6-4.33h14.23c.6,0,1.07.48,1.07,1.07v14.04l-3.99,2.53v5.73l3.99-2.43v13.43c.05.34.18.65.43.9l3.08,3.07c.37.37.4.91.13,1.33l-3.19,3.19.03.03h0c-.28.3-.48.69-.48,1.08ZM146.09,56.2v-.07l.04.04-.04.04Z"/>
  </g>
</svg>
