<?xml version="1.0" encoding="UTF-8"?>
<svg id="Layer_1" data-name="Layer 1" xmlns="http://www.w3.org/2000/svg" viewBox="0 0 257.07 102.9">
  <defs>
    <style>
      .cls-1 {
        fill: #50beaf;
      }
    </style>
  </defs>
  <g>
    <path class="cls-1" d="M147.65,26.34v3.85h-11.66v6.98h11.02v3.89h-11.02v7.7h11.89v4h-16.3v-26.42h16.08Z"/>
    <path class="cls-1" d="M154.59,56.95h-3.7l-.11-7.4h.45c.8,0,1.44-.28,1.91-.85.47-.57.77-1.12.91-1.66.14-.54.3-1.49.47-2.85.03-.2.05-.35.08-.45l1.32-9.17h12.83v14.98h2.45l-.11,7.4h-3.55v-4.19h-12.95v4.19ZM164.78,49.55v-11.55h-5.55l-.87,6.91c-.23,1.46-.45,2.51-.66,3.15-.21.64-.56,1.14-1.04,1.49h8.11Z"/>
    <path class="cls-1" d="M187.55,41.77l-11.59,11.02h-1.13v-18.23h4v10.95l11.4-10.98h1.28v18.23h-3.96v-10.98Z"/>
    <path class="cls-1" d="M209.26,34.57h4v18.19h-4v-7.62h-8.79v7.62h-3.96v-18.19h3.96v6.98h8.79v-6.98Z"/>
    <path class="cls-1" d="M236.44,43.59c0,2.99-.96,5.33-2.87,7-1.91,1.67-4.16,2.51-6.76,2.51s-4.84-.84-6.74-2.51c-1.9-1.67-2.85-4.01-2.85-7s.93-5.28,2.79-6.93c1.86-1.65,4.08-2.5,6.64-2.55,1.69-.02,3.25.3,4.7.96,1.45.67,2.65,1.74,3.62,3.23.97,1.49,1.45,3.25,1.45,5.28ZM221.3,43.59c0,1.86.55,3.32,1.66,4.36,1.11,1.04,2.41,1.55,3.92,1.53,1.48-.02,2.76-.55,3.83-1.59,1.07-1.03,1.6-2.47,1.6-4.3s-.57-3.32-1.7-4.36c-1.13-1.04-2.45-1.54-3.96-1.49-1.49.05-2.75.58-3.79,1.6s-1.57,2.43-1.57,4.25Z"/>
    <path class="cls-1" d="M248.76,34.15c3.14,0,5.42.94,6.83,2.83,1.41,1.89,1.81,4.37,1.21,7.44h-13.44c0,1.61.56,2.89,1.68,3.85,1.12.96,2.53,1.43,4.25,1.43,2.42.13,4.62-.25,6.6-1.13l.53,3.06c-2.31,1.03-4.6,1.55-6.87,1.55-3.04.05-5.54-.83-7.47-2.64-1.94-1.81-2.86-4.23-2.76-7.25.05-2.89.98-5.14,2.79-6.74,1.81-1.6,4.03-2.4,6.64-2.4ZM248.72,37.32c-2.97,0-4.73,1.4-5.28,4.19h10.04c.05-1.31-.38-2.33-1.3-3.08-.92-.74-2.07-1.11-3.45-1.11Z"/>
    <path class="cls-1" d="M156.94,75.62c0,4.03-1.26,7.31-3.77,9.85-2.52,2.54-5.76,3.81-9.74,3.81s-6.95-1.24-9.53-3.72c-2.58-2.48-3.87-5.79-3.87-9.94s1.31-7.47,3.93-9.95c2.62-2.48,5.8-3.72,9.55-3.72s6.93,1.24,9.53,3.72c2.6,2.48,3.91,5.79,3.91,9.95ZM137.07,68.62c-1.72,1.7-2.59,4.03-2.59,7s.86,5.3,2.57,6.98c1.71,1.69,3.86,2.53,6.45,2.53s4.75-.84,6.47-2.53,2.59-4.01,2.59-6.98-.86-5.24-2.59-6.96-3.87-2.59-6.44-2.59-4.75.85-6.47,2.55Z"/>
    <path class="cls-1" d="M165,77.88h1.89c4.13,0,6.19-2.43,6.19-7.28h3.92c.05,4.66-1.53,7.72-4.76,9.21l5.85,8.61v.42h-4.3l-5.06-7.7c-.48.13-1.12.19-1.93.19h-1.81v7.51h-4.08v-18.19h4.08v7.25Z"/>
    <path class="cls-1" d="M194.03,70.64h4v18.19h-4v-7.62h-8.79v7.62h-3.96v-18.19h3.96v6.98h8.79v-6.98Z"/>
    <path class="cls-1" d="M221.2,79.66c0,2.99-.96,5.33-2.87,7-1.91,1.67-4.16,2.51-6.76,2.51s-4.84-.84-6.74-2.51c-1.9-1.67-2.85-4.01-2.85-7s.93-5.28,2.79-6.93c1.86-1.65,4.08-2.5,6.64-2.55,1.69-.02,3.25.3,4.7.96s2.65,1.74,3.62,3.23c.97,1.49,1.45,3.25,1.45,5.28ZM206.07,79.66c0,1.86.55,3.32,1.66,4.36,1.11,1.04,2.41,1.55,3.92,1.53,1.48-.02,2.76-.55,3.83-1.59,1.07-1.03,1.6-2.47,1.6-4.3s-.57-3.32-1.7-4.36c-1.13-1.04-2.45-1.54-3.96-1.49-1.49.05-2.75.58-3.79,1.6s-1.57,2.43-1.57,4.25Z"/>
  </g>
  <g>
    <path class="cls-1" d="M69.01,83.99h-3.45l12.94,18.65c.11.16.3.26.49.26h7.67c.33,0,.5-.4.27-.63l-17.93-18.27Z"/>
    <path class="cls-1" d="M62.65,84.13c-.05-.09-.14-.15-.25-.15h-3.07c-.1,0-.17.1-.14.2l1.94,5.44h4.43l-2.91-5.49Z"/>
    <path class="cls-1" d="M67.46,93.19h-5.05l3.35,9.41c.07.18.24.3.42.3h6.02c.18,0,.3-.2.21-.36l-4.95-9.35Z"/>
    <path class="cls-1" d="M42.19,83.99l-17.93,18.27c-.23.24-.06.63.27.63h7.67c.2,0,.38-.1.49-.26l12.94-18.65h-3.45Z"/>
    <path class="cls-1" d="M38.76,102.54c-.09.16.03.36.22.36h6.02c.19,0,.36-.12.42-.3l3.5-9.41h-5.05l-5.1,9.35Z"/>
    <path class="cls-1" d="M52.12,83.99h-3.07c-.1,0-.2.06-.24.15l-2.99,5.49h4.43l2.02-5.44c.04-.1-.04-.2-.14-.2Z"/>
    <path class="cls-1" d="M54.66,83.99l-2.05,18.53c-.02.2.14.38.34.38h5.88c.2,0,.36-.17.34-.37l-1.9-18.53h-2.61Z"/>
    <path class="cls-1" d="M103.49,58.71l7.7-7.7-7.38-7.38-4.76,4.76,2.8,2.8,1.96-1.96,1.79,1.79-4.91,4.91-2.83-2.83V15.33c0-1.03-.83-1.86-1.86-1.86h-34.51l-2.98-2.98,4.91-4.91,1.79,1.79-1.96,1.96,2.8,2.8,4.76-4.76-7.38-7.38-7.7,7.7-7.7-7.7-7.38,7.38,4.76,4.76,2.8-2.8-1.96-1.96,1.79-1.79,4.91,4.91-2.98,2.98H15.47c-1.03,0-1.87.84-1.87,1.86v37.6l-3.1,3.1-4.91-4.91,1.79-1.79,1.96,1.96,2.8-2.8-4.76-4.76L0,51.13l7.7,7.7-7.7,7.7,7.38,7.38,4.76-4.76-2.8-2.8-1.96,1.96-1.79-1.79,4.91-4.91,3.1,3.1v10.46h0v6.06-.02s0,21.14,0,21.14c0,.44.52.68.87.42l23.8-18.7c.45-.37.72-.92.72-1.5v-9.46l10.19-10.62,10.21,10.21,2.8-2.8-5.13-5.13,7.42-7.42,7.99,7.99v17.23c0,.58.27,1.14.71,1.5l23.58,18.66c.44.37,1.12.04,1.12-.53l-.02-20.26v-17.61l2.83-2.83,4.91,4.91-1.79,1.79-1.96-1.96-2.8,2.8,4.76,4.76,7.38-7.38-7.7-7.7ZM55.72,13.29l.18.18h-.37l.18-.18ZM13.29,58.83l.31-.31v.62l-.31-.31ZM64.48,51.77l-10.21,10.21-5.14-5.14-10.14,10.56v-7.05l-.02-.02v-9.24s.02,0,.02-.03v-12.17c0-.44.37-.8.8-.8h31.88c.43,0,.8.37.8.8v12.17h0v8.69l-7.99-7.99ZM86.22,59.41l-3.17,3.17c-.14.13-.33.4-.33,1.04v9.19l-3.62-2.3v6.1l3.63,2.32v7s-5.49-4.24-5.49-4.24c-.22-.2-.35-.47-.35-.77v-45.39c0-1.03-.84-1.86-1.86-1.86h-6.55.58s-6.05,0-6.05,0h-.58s-14.28,0-14.28,0h0s-6.05,0-6.05,0h0s-5.68,0-5.68,0c-1.03,0-1.86.83-1.86,1.86v6.3h0v6.04h0v15.8h0v6.04h0v11.78c0,.31-.15.61-.41.8l-5.44,3.84.02-7.09,3.61-2.28v-6.09l-3.61,2.28v-3.21s0-6.72,0-6.72c-.09-.19-.22-.37-.37-.51l-3.16-3.17c-.44-.44-.44-1.16,0-1.6l3.21-3.22c.15-.13.25-.29.33-.46v-7.37s3.59,2.3,3.59,2.3v-6.21l-3.58-2.23v-5.29s0-6.46,0-6.46c0-.43.37-.8.82-.79h10.59l2.87,4.54h6.2l-2.93-4.54h3.8c.42,0,.86,0,1.27-.31l3.62-2.98c.22-.22.5-.33.79-.33s.58.11.81.33l3.58,2.77c.27.18.58.42.94.45l3.82.06-2.95,4.54h6.23l2.96-4.63,10.71.09c.43,0,.8.36.8.79v11.71l-3.59,2.27v6.2l3.6-2.18v7.41c.08.15.17.28.29.4l3.23,3.21c.43.45.43,1.17,0,1.6ZM93.42,63.87v16.06l-4.23-2.68v6.17l4.23,2.72v8.08l-5.87-4.86-.03-7.37.03-5.85v-7.46l-.03-3.16v-5.44s.03-3.26.03-3.26v-7.75s0-7.15,0-7.15v-6.02s0-.03,0-.03v-5.49s.02-4.97.02-4.97c0-.92-.58-1.66-1.46-1.81-.1-.03-.21-.03-.32-.03H25.69c-1.03-.02-1.88.82-1.88,1.86v4.97s.02,4.85.02,4.85v7.27s.02,4.36.02,4.36v9.87s0,3.24,0,3.24l.02,9.57v3.98s.02,6.04.02,6.04v2.39l.02,7.98-5.88,4.26v-8.29l4.04-2.57v-6.17l-4.04,2.54v-16.07c0-.43-.21-.83-.51-1.13l-3.16-3.17c-.44-.44-.44-1.16,0-1.6l3.22-3.21c.26-.26.41-.58.45-.94v-13.81l3.97,2.55v-6.13l-3.97-2.53v-14.99c0-.44.36-.8.8-.8h14.89l2.85,4.53h6.18l-2.98-4.53h10.92c.42,0,.82-.2,1.13-.5l3.17-3.17c.44-.43,1.15-.43,1.6,0l3.21,3.23c.26.25.58.41.94.44h10.63l-2.72,4.53h6.04l2.72-4.53h14.88c.62,0,1.12.5,1.12,1.12v14.68l-4.17,2.65v5.99l4.17-2.54v14.03c.05.36.19.68.45.94l3.22,3.21c.38.38.42.95.14,1.39l-3.34,3.34.03.03h0c-.3.31-.5.72-.5,1.13ZM97.86,58.75v-.08l.04.04-.04.04Z"/>
  </g>
</svg>